# xmcd
#
# Track frame offsets: 
#        150
#        9702
#        23612
#        41087
#        52002
#        63207
#        82730
#        94050
#        107415
#        124487
#
# Disc length: 1814 seconds
#
# Revision: 2
# Processed by: cddbd v1.4PL0 Copyright (c) Steve Scherf et al.
# Submitted via: ExactAudioCopy v0.90b4
#
DISCID=7607140a
DTITLE=Ricky Skaggs - Family And Friends
DYEAR=1900
DGENRE=Country
TTITLE0=Lost And I'll Never Find The Way
TTITLE1=Two Different Worlds
TTITLE2=River Of Memory
TTITLE3=Talk About Sufferin'
TTITLE4=Think Of What You've Done
TTITLE5=Toy Heart
TTITLE6=Hallelujah I'm Ready
TTITLE7=Say, Won't You Be Mine
TTITLE8=Won't It Be Wonderful There
TTITLE9=River Of Jordan
EXTD=
EXTT0=
EXTT1=
EXTT2=
EXTT3=
EXTT4=
EXTT5=
EXTT6=
EXTT7=
EXTT8=
EXTT9=
PLAYORDER=
